<?xml version="1.0" encoding="UTF-8"?>
<svg xmlns="http://www.w3.org/2000/svg" viewBox="0 0 1699.97 1473.66">
  <defs>
    <style>
      .svg-logo-crown {
        fill: #e6552f;
      }
      .svg-logo-box {
        fill: #202426;
      }
    </style>
  </defs>
  <g>
    <path class="svg-logo-box" d="M131.36,1148.76c-19.66,0-37.56-4.01-53.69-12-16.14-7.99-29.96-18.64-41.49-31.89-11.53-13.25-20.45-28.42-26.75-45.46-6.3-17.07-9.43-34.5-9.43-52.36s3.35-36.48,10.03-53.54c6.68-17.07,15.92-32.16,27.74-45.27,11.8-13.11,25.76-23.56,41.9-31.29,16.14-7.75,33.62-11.61,52.51-11.61s37.48,4.13,53.5,12.41c15.99,8.26,29.77,19.09,41.3,32.47,11.53,13.37,20.45,28.53,26.75,45.46,6.3,16.92,9.43,34.18,9.43,51.76,0,18.64-3.35,36.48-10.03,53.55-6.68,17.07-15.87,32.08-27.55,45.07-11.67,12.99-25.57,23.37-41.71,31.1-16.14,7.75-33.62,11.61-52.51,11.61ZM35.8,1007.02c0,14.17,2.29,27.89,6.87,41.14,4.58,13.25,11.07,24.99,19.47,35.22,8.39,10.23,18.48,18.37,30.3,24.41,11.79,6.03,24.92,9.05,39.34,9.05s28.32-3.21,40.11-9.66c11.79-6.42,21.83-14.83,30.08-25.2,8.25-10.36,14.54-22.11,18.89-35.22,4.32-13.11,6.49-26.37,6.49-39.76,0-14.17-2.29-27.88-6.87-41.13-4.58-13.26-11.14-24.94-19.66-35.03-8.51-10.09-18.62-18.18-30.3-24.21-11.67-6.04-24.58-9.05-38.74-9.05-14.95,0-28.32,3.14-40.11,9.44-11.79,6.3-21.83,14.56-30.08,24.79-8.25,10.23-14.62,21.92-19.08,35.03-4.46,13.13-6.68,26.51-6.68,40.15l-.02.05Z"/>
    <path class="svg-logo-box" d="M450.75,1116.87c16.26,0,29.76-3.14,40.52-9.44,10.76-6.3,19.35-14.49,25.76-24.6,6.42-10.09,10.95-21.65,13.55-34.64,2.63-12.99,3.93-26.17,3.93-39.57v-141.32h35.41v141.32c0,18.91-2.17,36.82-6.49,53.74-4.32,16.92-11.22,31.82-20.65,44.68-9.43,12.87-21.71,23.03-36.79,30.52-15.08,7.48-33.36,11.22-54.87,11.22s-41.03-3.94-56.25-11.8c-15.22-7.87-27.47-18.3-36.78-31.29-9.31-12.99-15.99-27.95-20.07-44.88-4.08-16.92-6.1-34.31-6.1-52.17v-141.32h35.41v141.32c0,13.91,1.37,27.35,4.12,40.34,2.75,12.99,7.33,24.48,13.77,34.45,6.42,9.97,14.95,18.06,25.57,24.22,10.61,6.18,23.93,9.25,39.92,9.25l.02-.02Z"/>
    <path class="svg-logo-box" d="M897.98,1146.78v-216.12l-92.82,165.73h-20.07l-93.23-165.73v216.12h-35.41v-279.51h37.36l101.09,181.47,101.48-181.47h36.97v279.51h-35.41.02Z"/>
    <path class="svg-logo-box" d="M1059.22,933.42v213.36h-35.41v-279.51h27.55l173.07,217.71v-217.3h35.41v279.1h-29.88l-170.71-213.36h-.02Z"/>
    <path class="svg-logo-box" d="M1350.29,1146.78v-279.51h35.41v279.51h-35.41Z"/>
    <path class="svg-logo-box" d="M1476.15,1146.78v-279.1h35.41v154.31l143.95-154.73h38.16l-112.09,123.22,118.38,156.29h-38.54l-101.48-135.82-48.39,50.38v85.41h-35.41v.02Z"/>
    <path class="svg-logo-box" d="M513.95,1429.04c0,7.64-1.49,14.31-4.46,19.86-2.93,5.59-7.07,10.25-12.18,13.87-4.54,3.26-9.89,5.75-15.88,7.48l-2.65.72c-7.24,1.77-15.24,2.69-23.76,2.69-12.7,0-24.92-2.01-36.26-5.99-10.61-3.66-20.42-9-29.22-15.88l7.32-12.94c2.21,2.01,4.82,4.02,7.72,5.91,4.18,2.81,9.04,5.39,14.35,7.6,5.35,2.21,11.13,4.06,17.16,5.43,6.15,1.37,12.7,2.09,19.42,2.09,12.66,0,22.67-2.33,29.79-6.95,7.52-4.86,11.34-12.18,11.34-21.75,0-5.31-1.25-9.89-3.74-13.71l-.92-1.29c-2.33-3.1-5.51-5.79-9.45-8.04-4.38-2.53-9.77-4.74-16.04-6.63-6.27-1.85-13.35-3.78-21.06-5.63-8.44-2.05-15.96-4.26-22.43-6.63-6.27-2.29-11.54-5.07-15.6-8.2l-1.53-1.21c-2.85-2.45-5.07-5.19-6.79-8.32l-.8-1.65c-2.05-4.38-3.1-9.77-3.1-16.04,0-7.68,1.41-14.51,4.26-20.34,2.77-5.79,6.79-10.77,11.9-14.83,5.07-4.06,11.26-7.16,18.37-9.21,7.28-2.09,15.24-3.14,23.64-3.14,10.37,0,19.94,1.49,28.42,4.46l1.69.6c8.12,3.14,15.52,7.2,21.99,12.22l-6.99,12.18c-1.57-1.37-3.34-2.73-5.47-4.14-2.93-1.89-6.19-3.62-9.73-5.19l-1.49-.64c-4.06-1.73-8.64-3.18-13.55-4.26-4.9-1.09-10.05-1.61-15.32-1.61-13.83,0-24.2,2.69-30.83,8.04-6.79,5.47-10.25,13.06-10.25,22.55,0,5.15,1,9.49,3.01,12.9,1.97,3.46,5.11,6.39,9.29,8.8,3.94,2.25,8.84,4.26,14.59,5.87,5.79,1.69,12.54,3.38,20.02,5.07,8.64,1.89,16.56,4.06,23.48,6.51,6.87,2.41,12.74,5.39,17.49,8.84,4.62,3.38,8.2,7.56,10.61,12.38,2.41,4.86,3.66,10.97,3.66,18.13Z"/>
    <polygon class="svg-logo-box" points="676.75 1307.6 676.75 1321.14 618.14 1321.14 618.14 1472.01 602.22 1472.01 602.22 1321.14 543.57 1321.14 543.57 1307.6 676.75 1307.6"/>
    <path class="svg-logo-box" d="M859.61,1307.6v83.17c0,11.13-1.33,21.91-3.9,32-2.53,9.89-6.59,18.69-12.1,26.21-5.43,7.4-12.62,13.35-21.35,17.73-8.76,4.3-19.58,6.51-32.12,6.51s-24.28-2.37-32.92-6.87l-1.65-.88c-8.08-4.42-14.71-10.25-19.7-17.29l-1.05-1.45c-4.86-7.2-8.48-15.56-10.73-24.88-2.41-10.01-3.66-20.46-3.66-31.07v-83.17h15.92v83.17c0,8.56.88,17.04,2.57,25.12,1.73,8.2,4.66,15.56,8.76,21.91,4.14,6.43,9.73,11.7,16.52,15.64,6.87,3.98,15.52,5.99,25.69,5.99s19.09-2.05,26.05-6.11c6.51-3.82,11.82-8.76,15.84-14.71l.8-1.17c4.06-6.39,6.95-13.83,8.64-22.03,1.61-8.08,2.45-16.36,2.45-24.64v-83.17h15.92Z"/>
    <path class="svg-logo-box" d="M1041.79,1357.52c-3.26-9.89-8.28-18.61-14.87-25.97-6.55-7.32-14.87-13.23-24.72-17.49-9.89-4.3-21.55-6.47-34.65-6.47h-56.04v164.41h56.04c12.06,0,23.07-2.01,32.8-5.91,9.69-3.86,18.09-9.45,25-16.6l1.29-1.37c6.23-6.79,11.13-15.03,14.59-24.44,3.7-10.09,5.59-21.59,5.59-34.13,0-11.3-1.69-22.07-5.02-32.04ZM1026.56,1416.7c-2.69,8.32-6.75,15.72-11.98,21.87-5.35,6.23-12.02,11.13-19.94,14.67-7.88,3.46-17,5.23-27.09,5.23h-40.12v-137.32h40.12c9.89,0,18.89,1.73,26.73,5.11,7.84,3.46,14.55,8.24,19.98,14.27,5.43,5.99,9.57,13.31,12.3,21.71l.52,1.57c2.37,7.84,3.58,16.52,3.58,25.77s-1.37,18.77-4.1,27.13Z"/>
    <rect class="svg-logo-box" x="1094.89" y="1307.6" width="15.92" height="164.41"/>
    <path class="svg-logo-box" d="M1307.02,1359.49l-.72-1.89c-3.66-9.17-8.72-17.57-15.03-24.92-6.83-7.84-14.99-14.27-24.32-19.09-9.13-4.7-19.94-7.2-31.23-7.2s-21.3,2.29-30.71,6.79c-9.49,4.58-17.73,10.73-24.6,18.37-6.91,7.72-12.42,16.68-16.36,26.69-3.86,9.85-5.91,20.78-5.91,31.56s1.89,20.86,5.59,30.87c3.7,10.01,9,19.05,15.76,26.77,6.71,7.72,14.91,14.03,24.36,18.73,9.08,4.5,19.3,6.87,30.39,6.99h1.05c10.97,0,21.35-2.29,30.71-6.79l1.77-.88c8.68-4.42,16.32-10.25,22.71-17.41l1.29-1.45c6.23-7.28,11.26-15.72,14.91-25.12,3.94-9.97,5.91-20.58,5.91-31.52,0-10.33-1.85-20.58-5.55-30.51ZM1292.35,1414.89c-2.69,8.24-6.71,15.76-11.94,22.31-5.27,6.55-11.7,11.98-19.17,16.04-7.48,4.06-16.36,6.19-25.77,6.19s-17.65-1.93-25.2-5.79c-7.48-3.82-13.99-9.08-19.3-15.6-5.31-6.39-9.45-13.91-12.34-22.27-2.89-8.32-4.34-17.08-4.34-25.97s1.41-17.04,4.22-25.32c2.77-8.24,6.83-15.68,12.06-22.19,5.27-6.51,11.74-11.82,19.17-15.8,7.56-4.02,16.2-6.07,25.73-6.07s17.41,1.93,24.88,5.79c7.36,3.82,13.87,9,19.3,15.44,5.35,6.35,9.57,13.83,12.46,22.19,2.89,8.32,4.34,17.08,4.34,25.97,0,8.36-1.37,16.8-4.1,25.08Z"/>
    <path class="svg-logo-box" d="M615.96,210.11v438.16h468.31V210.11h32.16v470.32h-532.63V210.11h32.16Z"/>
    <path class="svg-logo-crown" d="M1100.35,197.72L1278.23,10.66l26.11,25.05-204,210.9-231.14-185.83v619.65h-36.18V60.96l-233.15,185.63L393.94,35.78l25.97-25.19,179.96,187.14L851.07,0l249.27,197.72Z"/>
  </g>
</svg>