<?xml version="1.0" encoding="UTF-8"?>
<svg xmlns="http://www.w3.org/2000/svg" viewBox="0 0 4098.53 590.06">
  <defs>
    <style>
      .cls-1 {
        fill: #fff;
      }
    </style>
  </defs>
  <g>
    <path class="cls-1" d="M191.36,186.1v376.34h407.07V186.1h27.95v403.97H163.4V186.1h27.95Z"/>
    <path class="cls-1" d="M612.81,171.47L767.13,9.25l22.64,21.72-176.97,182.89L412.3,52.7v537.36h-31.39V52.87l-202.26,160.98L0,31.03,22.53,9.18l156.12,162.29L396.56,0l216.25,171.47Z"/>
    <path class="cls-1" d="M968.14,504.15c-19.9,0-38.02-4.06-54.35-12.15-16.34-8.09-30.32-18.86-41.99-32.28-11.67-13.42-20.71-28.76-27.08-46.02-6.37-17.28-9.55-34.92-9.55-53s3.4-36.92,10.16-54.2c6.76-17.28,16.11-32.55,28.08-45.82,11.94-13.27,26.08-23.85,42.41-31.67,16.34-7.84,34.04-11.75,53.16-11.75s37.94,4.18,54.15,12.56c16.19,8.36,30.13,19.33,41.8,32.87,11.67,13.54,20.71,28.88,27.08,46.01,6.37,17.13,9.55,34.6,9.55,52.39,0,18.87-3.4,36.92-10.16,54.2-6.76,17.28-16.06,32.48-27.88,45.62-11.81,13.15-25.88,23.66-42.21,31.48-16.34,7.84-34.04,11.75-53.15,11.75ZM871.4,360.68c0,14.34,2.32,28.22,6.96,41.64,4.64,13.42,11.21,25.29,19.7,35.65,8.5,10.36,18.7,18.6,30.67,24.71,11.94,6.11,25.22,9.16,39.82,9.16s28.66-3.25,40.61-9.78c11.94-6.5,22.1-15,30.44-25.51,8.35-10.48,14.72-22.38,19.12-35.65,4.37-13.27,6.57-26.68,6.57-40.25,0-14.34-2.32-28.22-6.96-41.64-4.64-13.42-11.28-25.24-19.9-35.46-8.62-10.21-18.85-18.4-30.67-24.51-11.82-6.11-24.88-9.16-39.21-9.16-15.14,0-28.66,3.18-40.6,9.55-11.94,6.38-22.1,14.73-30.45,25.1-8.35,10.36-14.8,22.19-19.31,35.46-4.52,13.29-6.76,26.83-6.76,40.64l-.02.05Z"/>
    <path class="cls-1" d="M1291.42,471.87c16.46,0,30.13-3.18,41.02-9.55s19.58-14.66,26.08-24.9c6.5-10.21,11.08-21.92,13.72-35.07,2.66-13.15,3.98-26.49,3.98-40.05v-143.05h35.84v143.05c0,19.13-2.2,37.27-6.57,54.4-4.37,17.13-11.35,32.21-20.9,45.23-9.55,13.03-21.98,23.31-37.23,30.89-15.26,7.58-33.77,11.37-55.55,11.37s-41.53-3.99-56.94-11.95c-15.41-7.97-27.81-18.52-37.23-31.67-9.43-13.15-16.19-28.3-20.32-45.43-4.13-17.13-6.18-34.72-6.18-52.81v-143.05h35.84v143.05c0,14.08,1.39,27.69,4.18,40.83,2.78,13.15,7.42,24.78,13.94,34.87,6.5,10.09,15.14,18.28,25.88,24.51,10.74,6.25,24.22,9.36,40.41,9.36l.02-.03Z"/>
    <path class="cls-1" d="M1744.11,502.15v-218.76l-93.95,167.76h-20.32l-94.36-167.76v218.76h-35.84V219.22h37.82l102.33,183.69,102.72-183.69h37.43v282.93h-35.84.03Z"/>
    <path class="cls-1" d="M1907.33,286.17v215.97h-35.84V219.22h27.88l175.18,220.37v-219.95h35.84v282.51h-30.25l-172.79-215.97h-.02Z"/>
    <path class="cls-1" d="M2201.95,502.15V219.22h35.84v282.93h-35.84Z"/>
    <path class="cls-1" d="M2329.35,502.15V219.63h35.84v156.2l145.71-156.61h38.62l-113.46,124.72,119.83,158.2h-39.02l-102.72-137.48-48.98,51v86.46h-35.84v.03Z"/>
    <path class="cls-1" d="M2882.68,424.05c0,12.26-2.36,22.92-7.08,31.73-4.63,8.76-11.03,16.11-19.02,21.83l-.41.27c-7.76,5.54-17.07,9.8-27.6,12.57l-2.18.59c-11.76,2.86-24.74,4.31-38.58,4.31-20.74,0-40.58-3.22-59.05-9.67-16.66-5.81-32.14-14.12-46.03-24.69l9.76-17.34c3.27,2.77,6.94,5.49,10.94,8.17,6.94,4.58,14.8,8.76,23.38,12.39l.64.27c8.9,3.68,18.56,6.72,28.69,9.03,10.35,2.31,21.24,3.49,32.45,3.49,21.24,0,38.17-3.95,50.2-11.76,13.07-8.44,19.7-21.11,19.7-37.67,0-8.99-2.09-16.84-6.22-23.28l-1.04-1.59c-4.09-5.76-9.85-10.8-17.07-14.98-7.31-4.22-16.39-7.94-26.87-11.08-10.58-3.13-22.29-6.31-34.86-9.35-13.75-3.31-26.1-6.99-36.67-10.85-9.99-3.63-18.34-7.99-24.87-12.98l-1.5-1.18c-5.81-4.67-10.12-10.12-13.16-16.61l-.59-1.32c-2.86-6.67-4.31-14.8-4.31-24.24,0-12.3,2.31-23.24,6.81-32.54,4.45-9.21,10.85-17.2,19.02-23.69,8.12-6.45,18.06-11.44,29.55-14.75,11.76-3.36,24.65-5.08,38.35-5.08,17.97,0,34.36,2.77,48.79,8.22,12.53,4.81,24.06,11.08,34.18,18.66l-9.31,16.16c-2.13-1.77-4.54-3.49-7.26-5.27-5.63-3.68-11.94-6.99-18.79-9.85-6.81-2.9-14.48-5.27-22.69-7.08-8.26-1.82-16.88-2.77-25.69-2.77-23.33,0-40.85,4.63-52.15,13.75-11.76,9.49-17.75,22.56-17.75,38.85,0,8.85,1.82,16.39,5.27,22.33,3.49,6.04,8.9,11.17,16.11,15.3,6.58,3.81,14.89,7.17,24.56,9.94,9.58,2.72,20.74,5.54,33.13,8.35,14.12,3.09,27.05,6.67,38.4,10.62,11.07,3.9,20.56,8.71,28.19,14.3,7.35,5.36,13.03,11.98,16.84,19.61,3.86,7.72,5.81,17.43,5.81,28.87Z"/>
    <polygon class="cls-1" points="3132.73 226.16 3132.73 244.13 3036.14 244.13 3036.14 492.68 3014.26 492.68 3014.26 244.13 2917.72 244.13 2917.72 226.16 3132.73 226.16"/>
    <path class="cls-1" d="M3411.24,226.2v134.85c0,18.2-2.09,35.72-6.31,52.15-4.09,16.02-10.67,30.32-19.56,42.44-8.76,11.94-20.33,21.51-34.41,28.5-14.12,6.99-31.59,10.58-51.97,10.58-20.88-.05-39.26-3.86-53.2-11.12l-.23-.14c-14.07-7.26-25.55-17.07-34.13-29.05l-1.68-2.41c-7.94-11.67-13.8-25.24-17.43-40.31-3.9-16.29-5.9-33.36-5.9-50.65v-134.85h21.83v134.85c0,14.25,1.45,28.32,4.31,41.85,2.86,13.75,7.85,26.14,14.71,36.81,7.04,10.89,16.43,19.79,27.96,26.46,11.66,6.72,26.23,10.17,43.44,10.17s32.23-3.5,43.98-10.39c11.71-6.85,21.2-15.93,28.14-26.87,6.85-10.76,11.71-23.24,14.52-37.04,2.68-13.39,4.04-27.19,4.04-40.99v-134.85h21.88Z"/>
    <path class="cls-1" d="M3688.84,306.95c-5.27-15.98-13.39-30.09-24.01-41.99-10.62-11.89-24.1-21.38-40.03-28.28-16.02-6.99-34.95-10.53-56.19-10.53h-90.14v266.53h90.14c19.56,0,37.49-3.22,53.24-9.58,15.61-6.26,29.23-15.3,40.4-26.83,11.07-11.48,19.74-25.55,25.69-41.8,5.99-16.34,9.03-35,9.03-55.42,0-18.38-2.72-35.9-8.12-52.11ZM3667.87,404.4c-4.54,14.03-11.35,26.42-20.15,36.81l-.27.32c-8.94,10.3-20.15,18.52-33.32,24.37-13.25,5.86-28.6,8.85-45.53,8.85h-68.31v-230.62h68.31c16.57,0,31.68,2.9,44.84,8.62,13.21,5.81,24.56,13.89,33.72,24.01,9.12,10.12,16.11,22.42,20.7,36.58,4.58,13.8,6.9,29.19,6.9,45.71s-2.31,31.36-6.9,45.34Z"/>
    <rect class="cls-1" x="3762.37" y="226.16" width="21.88" height="266.53"/>
    <path class="cls-1" d="M4089.49,310.26c-5.99-16.11-14.62-30.77-25.6-43.48-10.98-12.71-24.24-23.1-39.35-30.96-14.8-7.63-32.23-11.62-50.52-11.62s-34.45,3.68-49.66,10.98c-15.3,7.4-28.73,17.43-39.85,29.78-11.21,12.48-20.11,27.05-26.51,43.3-6.26,15.98-9.58,33.68-9.58,51.2s3.04,33.86,9.03,50.06c6.04,16.25,14.62,30.86,25.6,43.48,10.8,12.48,24.1,22.69,39.44,30.32,14.57,7.22,30.96,11.03,48.66,11.3h2.18c17.75,0,34.45-3.72,49.66-10.98,15.25-7.35,28.6-17.29,39.62-29.59,11.07-12.39,19.93-26.87,26.33-43.12,6.35-16.2,9.58-33.41,9.58-51.15,0-16.79-3.04-33.45-9.03-49.52ZM4069.43,401.4c-4.54,13.84-11.3,26.46-20.06,37.45l-1.63,2.04c-8.53,10.17-18.79,18.56-30.59,24.96-12.62,6.85-27.64,10.48-43.44,10.48s-29.78-3.31-42.53-9.8c-12.57-6.45-23.51-15.25-32.54-26.19-8.85-10.8-15.8-23.38-20.65-37.45-4.86-13.93-7.31-28.55-7.31-43.44s2.36-28.55,7.08-42.44c4.68-13.8,11.48-26.33,20.24-37.22l.5-.59c8.76-10.67,19.43-19.43,31.77-26.01,12.75-6.81,27.37-10.26,43.44-10.26,15.21,0,29.32,3.31,41.94,9.8,11.62,6.04,21.97,14.07,30.68,23.92l1.72,2.04c9.03,10.71,16.07,23.24,20.97,37.26,4.81,13.93,7.26,28.55,7.26,43.48,0,14.03-2.31,28.14-6.85,41.94Z"/>
  </g>
</svg>